SplineFontDB: 3.2
FontName: JosipaBubalo
FullName: JosipaBubalo
FamilyName: JosipaBubalo
Weight: Regular
Copyright: Copyright (c) 2023, josipa
UComments: "2023-3-18: Created with FontForge (http://fontforge.org)"
Version: 001.000
ItalicAngle: 0
UnderlinePosition: -100
UnderlineWidth: 50
Ascent: 800
Descent: 200
InvalidEm: 0
LayerCount: 2
Layer: 0 0 "Stra+AX4A-nji" 1
Layer: 1 0 "Prednji" 0
XUID: [1021 540 -1132451573 22390]
OS2Version: 0
OS2_WeightWidthSlopeOnly: 0
OS2_UseTypoMetrics: 1
CreationTime: 1679147994
ModificationTime: 1679263689
OS2TypoAscent: 0
OS2TypoAOffset: 1
OS2TypoDescent: 0
OS2TypoDOffset: 1
OS2TypoLinegap: 0
OS2WinAscent: 0
OS2WinAOffset: 1
OS2WinDescent: 0
OS2WinDOffset: 1
HheadAscent: 0
HheadAOffset: 1
HheadDescent: 0
HheadDOffset: 1
OS2Vendor: 'PfEd'
MarkAttachClasses: 1
DEI: 91125
Encoding: iso8859-2
UnicodeInterp: none
NameList: AGL For New Fonts
DisplaySize: -48
AntiAlias: 1
FitToEm: 0
WinInfo: 0 38 13
BeginPrivate: 0
EndPrivate
BeginChars: 256 22

StartChar: o
Encoding: 111 111 0
Width: 469
Flags: HW
LayerCount: 2
Fore
SplineSet
57 248 m 0
 43.5283203125 254.9140625 120.533203125 31.681640625 229 44 c 0
 336.310546875 56.1865234375 285 238 351 236 c 0
 436.048828125 233.422851562 330.994140625 439.142578125 223 438 c 0
 113.770507812 436.84375 162.689453125 193.759765625 57 248 c 0
3 232 m 0
 3 360 85 474 224 474 c 0
 363 474 442 374 442 246 c 0
 442 118 376 0 237 0 c 0
 98 0 3 104 3 232 c 0
EndSplineSet
Validated: 524321
EndChar

StartChar: s
Encoding: 115 115 1
Width: 320
Flags: HW
LayerCount: 2
Fore
SplineSet
14 390 m 1
 10.404296875 468.423828125 38.8295323712 449.059037848 68 468 c 1
 170 474 l 1
 193.999937442 468.414934736 205.999023438 462.625976562 230 440 c 5
 254.87109375 424.322265625 261.349868201 388.109661865 270 354 c 1
 215.85650679 312.223272913 214.465820312 369.784179688 194 376 c 1
 176 397 l 1
 144.666992188 413.41015625 121.333333325 414.054328523 90 396 c 1
 75.8784593386 365.999999993 89.9296875 336 94 306 c 1
 135.536132812 276.225585938 162.176536261 290.834407772 194 290 c 1
 253.074219128 263.263041823 269.427734375 227.258789062 280 190 c 1
 277.954101562 157.333007812 277.12741262 124.66666667 276 92 c 1
 280.859175672 67.5384888399 254.192645912 39.7878423729 208 10 c 1
 138.666666664 1.25949086636 77.3333333391 -18.5928241997 24 42 c 1
 8.9170172224 86.6666666717 9.36485714669 131.333333328 16 176 c 1
 59.6338460901 205.578960182 91.1884765625 176.405273438 78 174 c 1
 77.7353515625 148.666992188 79.6123046875 115.333007812 88 90 c 1
 122.697265625 77.23046875 165.28212878 81.8263334886 184 104 c 1
 186.280474759 131.153756041 189.843335955 159.869645322 188 182 c 1
 179.369348507 200.666666667 179.963867188 206.333007812 146 225 c 1
 103.953125 228.35546875 48.8525390625 248.166015625 17 284 c 1
 14 390 l 1
EndSplineSet
Validated: 524321
EndChar

StartChar: i
Encoding: 105 105 2
Width: 120
Flags: HW
LayerCount: 2
Fore
SplineSet
9 551 m 4
 8.9462890625 558.489257812 42.953125 477.165039062 52 569 c 4
 55.30078125 602.5078125 114.243164062 556.997070312 106 534 c 4
 102.170898438 523.317382812 69.2568359375 534.1328125 72 493 c 4
 74.1533203125 460.700195312 10.197265625 385.126953125 9 551 c 4
0 442 m 1
 0 0 l 1
 92 0 l 1
 91.31640625 132.6953125 82.3173828125 281.58984375 83 412 c 1
 0 442 l 1
EndSplineSet
Validated: 524329
EndChar

StartChar: p
Encoding: 112 112 3
Width: 392
Flags: HW
LayerCount: 2
Fore
SplineSet
270 225 m 1
 241.884479544 247.934918135 218.64453125 214.14453125 180 167 c 5
 208 171.795898438 236.000976562 172.565429688 264 185 c 5
 275.573242188 189.547851562 266.049560653 204.732015398 270 225 c 1
90 369 m 1
 96.84375 337.666992188 96.4169921875 196.333007812 90 165 c 1
 169.8984375 133.12890625 139.808342547 287.045073472 282 272 c 1
 266.487179406 301.769877694 253.775390625 405.140625 90 369 c 1
0 453 m 1
 73.8583984375 454.872070312 122.890625 471.2734375 222 449 c 0
 329.729492188 424.7890625 346.955754064 320.157589483 348 320 c 1
 357.394693885 264.713225151 362.205078125 207.22265625 305 121 c 1
 251.274414062 90.8544921875 161.721679688 80.80078125 92 78 c 1
 95 -49 93.2722715284 -106.121700381 96 -188 c 1
 16 -190 l 1
 0 453 l 1
EndSplineSet
Validated: 524321
EndChar

StartChar: a
Encoding: 97 97 4
Width: 318
Flags: HW
LayerCount: 2
Fore
SplineSet
215 176 m 5
 181.52734375 189.577148438 135.756835938 187.1875 97 173 c 5
 83.2822265625 159.040039062 67.9697265625 155.6015625 62 139 c 5
 64.2828273434 117.703528281 62.501812455 109.225009872 76 88 c 5
 85.18359375 78.7421875 93.5224609375 67.876953125 108 65 c 5
 161 51.4619140625 178.272460938 73.6005859375 216 73 c 5
 216.137695312 110.951171875 235.033203125 105.381835938 215 176 c 5
26 317 m 5
 23.4521484375 338.953125 20.677734375 393.432617188 21 418 c 5
 125.692925198 496.409775255 237.825195312 457.522460938 306 422 c 5
 322.873046875 295.333007812 320.510742188 132.666992188 299 6 c 5
 223 6 l 5
 222 19 l 5
 169.017578125 5.3740234375 110.30078125 -6.67578125 52 6 c 5
 41.7392578125 19.5205078125 8.0908203125 31.93359375 0 55 c 5
 -8.431640625 82.533203125 -42.7841796875 127.737304688 -16 166 c 5
 -4.0810546875 186.805664062 28.5234375 216.329101562 57 232 c 5
 103.666992188 246.849609375 182.333007812 255.647460938 229 240 c 5
 231.868164062 276.447265625 245.65234375 299.84765625 223 368 c 5
 186.930664062 375.689453125 164.248046875 393.990234375 103 366 c 5
 92.828125 342.513671875 100.333007812 307.016601562 103 293 c 5
 85 286.659179688 46 281.8125 28 298 c 5
 26 317 l 5
EndSplineSet
Validated: 524321
EndChar

StartChar: B
Encoding: 66 66 5
Width: 540
Flags: HW
LayerCount: 2
Fore
SplineSet
200 79 m 29
 200 79 278 67 316 79 c 0
 354 91 296 131 296 131 c 1
 200 79 l 29
82 75 m 1
 76.6309197122 74.7476099422 226.244140625 182.247070312 314 191 c 0
 366.817382812 196.268554688 367.890645311 94.3697663381 382 113 c 1
 453.30078125 221.5625 417.574209029 294.060668119 366 331 c 1
 289.484375 378.106445312 146.916992188 403.92578125 86 395 c 1
 82 75 l 1
70 735 m 1
 74 501 l 1
 115.749023438 501.14453125 210.56640625 495.936523438 250 517 c 1
 268.724609375 522.36328125 307.756835938 545.655273438 326 565 c 1
 325.79296875 565.244140625 346.349063593 633.652399928 342 667 c 0
 336.66796875 707.884765625 264 733 264 733 c 1
 257.012695312 741.452148438 64.1298828125 738.842773438 70 735 c 1
15 786 m 25
 299 786 l 1
 342.984642737 770.976723182 378.327628226 747.607141746 401 712 c 1
 421.564053702 664.081849361 421.403924128 614.417395762 407 564 c 1
 385.804935752 526.491457837 371.66015625 511.709960938 340 496 c 1
 307.895714275 476.089355395 263.588786099 458.706812773 228 452 c 1
 268.603202211 450.77876353 298.431851481 445.366227288 327 438 c 1
 367.265098206 427.548318349 443.374166459 389.282283635 465 354 c 1
 539.621701127 238.079477209 477.047851562 125.229492188 447 77 c 1
 411.717773438 31.970703125 364.095703125 24.01953125 332 16 c 1
 15 10 l 1
 15 786 l 25
EndSplineSet
Validated: 524325
EndChar

StartChar: b
Encoding: 98 98 6
Width: 514
Flags: HW
LayerCount: 2
Fore
SplineSet
394 216 m 1
 393.73046875 216.352539062 282.83456268 145.677166495 318 100 c 0
 339.342149723 72.2782083616 378 126 378 126 c 1
 401.459100848 154.801106195 408.801757812 192.41015625 394 216 c 1
114 360 m 1
 110 84 l 1
 157.719726562 71.6806640625 209.659179688 72.15234375 247 76 c 1
 277.87075647 79.9391027592 229.206747493 102.37209075 247 159 c 1
 257.126757969 241.350097827 394.674804688 238.349609375 382 280 c 1
 362.27734375 295.163085938 317.206054688 359.740234375 262 365 c 1
 223.333007812 361.880859375 152.666992188 377.5078125 114 360 c 1
30 783 m 1
 108 778 l 1
 110 435 l 1
 174 452.401367188 278 439.8984375 342 420 c 1
 396.801757812 400.420898438 437.930664062 327.38671875 462 310 c 1
 487.1953125 234.666992188 476 135 454 61 c 1
 426.083007812 31.853515625 383.111959207 20.9907146691 334 14 c 1
 228.666666667 -8.33413634244 131.333007812 -2.5146484375 26 7 c 1
 33.361328125 267.877929688 28.9150390625 524.424804688 30 783 c 1
EndSplineSet
Validated: 524321
EndChar

StartChar: u
Encoding: 117 117 7
Width: 366
Flags: HW
LayerCount: 2
Fore
SplineSet
16 407 m 1
 37.39453125 415.700195312 56.486328125 420.87109375 86 408 c 1
 94 135 l 1
 112 95 l 1
 165.670898438 49.3359375 184.196289062 62.083984375 228 76 c 1
 250.401367188 86.65625 260.116210938 104.688476562 268 126 c 1
 272 420 l 5
 317.047851562 434.540052453 322.982421875 424.995806983 350 425 c 5
 348 146 l 1
 347 0 l 1
 347 0 276 -2 276 4 c 0
 276 10 272 40 272 40 c 1
 267.333007812 19.333984375 255.333315619 19.3340697692 232 4 c 1
 189.333007812 -0.0263671875 146.666992188 -3.306640625 104 6 c 1
 64.0009765625 31.3330078125 26.6669921875 64 16 108 c 1
 16 407 l 1
EndSplineSet
Validated: 524321
EndChar

StartChar: J
Encoding: 74 74 8
Width: 328
Flags: HW
LayerCount: 2
Fore
SplineSet
215 790 m 1
 247 784 257.629882812 794.229492188 289 782 c 1
 302 62 l 1
 311.471679688 68.7509765625 282.811725061 33.8023908703 261 21 c 0
 235.16796875 5.837890625 118.692012431 -1.96766948668 88 14 c 0
 80.214197653 18.0506017272 12.279296875 69.310546875 17 90 c 1
 11.022452509 116.723119289 9.84542825511 171.370608188 41 210 c 1
 73.306640625 213.391601562 92.1818564303 209.61388018 108 207 c 1
 93.6787109375 150.12890625 87.7400123324 131.014019361 106 88 c 1
 145.333007812 56.916015625 184.666992188 58.8408203125 224 102 c 1
 215 790 l 1
EndSplineSet
Validated: 524321
EndChar

StartChar: Zcaron
Encoding: 174 381 9
Width: 478
Flags: HW
LayerCount: 2
Fore
SplineSet
115 904 m 5
 160 923 l 5
 210 867 l 5
 277 921 l 5
 305 894 l 5
 212 813 l 5
 115 904 l 5
18 800 m 1
 410 798 l 1
 138 94 l 1
 241.208984375 96.95703125 325.807617188 96.0078125 424 96 c 1
 424 96 428 2 428 0 c 0
 428 -2 -1.97649410811 0.308056311522 0 0 c 0
 12.83203125 -2 276.721679688 716 278 716 c 1
 22 718 l 1
 18 800 l 1
EndSplineSet
Validated: 524325
EndChar

StartChar: Scaron
Encoding: 169 352 10
Width: 540
Flags: HW
LayerCount: 2
Fore
SplineSet
206 797 m 1
 98 889 l 1
 164 893 l 1
 208 847 l 1
 252 891 l 1
 326 893 l 1
 206 797 l 1
396 667 m 1
 348.06751279 709.762118684 351.91071261 752.735078254 224 786 c 1
 161.397917973 781.106766235 118.616210938 780.522460938 88 737 c 1
 39.748046875 703.943359375 32.259765625 664.489257812 18 607 c 1
 23.5126953125 536.650390625 78.8711893225 512.926144923 120 484 c 1
 238 444 l 1
 330.50591822 379.806990104 329.05859375 317.083984375 356 245 c 1
 353.203125 231.408203125 327.179787705 140.573987333 241 135 c 0
 131.706507008 127.931050752 119.652524958 261.618560405 124 262 c 1
 28 258 l 1
 24.3821078358 202.355539434 27.3312257237 146.28126172 64 88 c 1
 64 88 120.70608669 9.49943329365 248 18 c 0
 371.99953394 26.280571179 426.000017762 104.827753908 426 104 c 1
 461.224200632 163.999999995 466.603286365 224.000000006 460 284 c 1
 438.860459591 370.683630416 396.963096754 453.229190295 296 524 c 1
 296 524 124 563 132 615 c 0
 140 667 182 687 182 687 c 1
 182 687 239.868878424 704.756592467 274 668 c 0
 300 640 330 614 330 614 c 1
 396 667 l 1
EndSplineSet
Validated: 524329
EndChar

StartChar: ccaron
Encoding: 232 269 11
Width: 346
Flags: HW
LayerCount: 2
Fore
SplineSet
164 455 m 1
 255 529 l 1
 194 530 l 5
 194 530 164 500 163 500 c 0
 162 500 125 532 125 532 c 1
 70 530 l 1
 164 455 l 1
299 364 m 1
 291.808729577 385.437576375 311.923828125 389.3515625 272 427 c 1
 231.379944049 431.940839952 191.59627327 436.819128174 138 429 c 1
 87.044921875 440.694335938 -7.3896484375 373.26953125 8 304 c 1
 12 139 l 1
 5.46391476499 90.396362131 86.8366365368 18.489543403 148 5 c 1
 200.327511383 -4.77763202367 240.570114096 0.272196224502 277 10 c 1
 297.946435092 27.6148927382 317.315153566 46.4418403101 311 85 c 1
 317.859248267 87.230837297 208.203996562 90.1301860632 195 87 c 0
 156.38104416 77.8448539211 108.309570312 120.22265625 103 156 c 0
 102.706054688 157.978515625 97 281 97 281 c 1
 93.666015625 270.864257812 89.71875 346.162109375 149 362 c 1
 219.50562133 385.715079463 252.774551278 367.575946347 299 364 c 1
EndSplineSet
Validated: 524329
EndChar

StartChar: cacute
Encoding: 230 263 12
Width: 338
Flags: HW
LayerCount: 2
Fore
SplineSet
124 464 m 1
 196 525 l 1
 269 523 l 1
 208 468 l 5
 124 464 l 1
299 364 m 1
 291.808729577 385.437576375 311.923828125 389.3515625 272 427 c 1
 231.379944049 431.940839952 191.59627327 436.819128174 138 429 c 1
 87.044921875 440.694335938 -7.3896484375 373.26953125 8 304 c 1
 12 139 l 1
 5.46391476499 90.396362131 86.8366365368 18.489543403 148 5 c 1
 200.327511383 -4.77763202367 240.570114096 0.272196224502 277 10 c 1
 297.946435092 27.6148927382 317.315153566 46.4418403101 311 85 c 1
 317.859248267 87.230837297 208.203996562 90.1301860632 195 87 c 0
 156.38104416 77.8448539211 108.309570312 120.22265625 103 156 c 0
 102.706054688 157.978515625 97 281 97 281 c 1
 93.666015625 270.864257812 89.71875 346.162109375 149 362 c 1
 219.50562133 385.715079463 252.774551278 367.575946347 299 364 c 1
EndSplineSet
Validated: 524329
EndChar

StartChar: Cacute
Encoding: 198 262 13
Width: 418
Flags: HW
LayerCount: 2
Fore
SplineSet
15 716 m 1
 36.5251535757 751.175531249 60.5030128662 776.345323463 90 779 c 1
 169.976355966 798.23817372 214.835399693 789.930455396 264 785 c 1
 296.000000003 760.002262359 319.999999997 741.002262381 336 728 c 9
 300 683 l 25
 246 710 l 1
 199.657043642 714.978813673 153.17064183 719.41890249 99 695 c 1
 73.2769190438 482.169121133 86.4033203125 286.358398438 96 89 c 5
 161 64.8291015625 225.999999988 77.340592938 291 104 c 1
 290.475098785 128.442472917 308.765334754 158.528763541 285 176 c 1
 357 215 l 1
 394.344889648 175.211520668 371.639475142 113.431499663 369 59 c 1
 372.940235959 59.608016008 277.379693736 -1.39020030132 180 0 c 1
 173.88671875 0.1318359375 77.873046875 -0.146484375 72 0 c 1
 18.126953125 1.345703125 20.7238673711 76.0503146387 18 77 c 0
 14.1949240039 78.3266523218 -18.798039432 379.493957604 15 716 c 1
135 810 m 1
 223 893 l 1
 305 885 l 1
 231 813 l 1
 135 810 l 1
EndSplineSet
Validated: 524321
EndChar

StartChar: Ccaron
Encoding: 200 268 14
Width: 418
Flags: HW
LayerCount: 2
Fore
SplineSet
97 919 m 25
 145 920 l 1
 184 870 l 29
 233 916 l 1
 285 914 l 25
 182 816 l 25
 97 919 l 25
15 716 m 1
 36.5251535757 751.175531249 60.5030128662 776.345323463 90 779 c 1
 169.976355966 798.23817372 214.835399693 789.930455396 264 785 c 1
 296.000000003 760.002262359 319.999999997 741.002262381 336 728 c 9
 300 683 l 25
 246 710 l 1
 199.657043642 714.978813673 153.17064183 719.41890249 99 695 c 1
 73.2769190438 482.169121133 86.4033203125 286.358398438 96 89 c 1
 161 64.8291015625 225.999999988 77.340592938 291 104 c 1
 290.475098785 128.442472917 308.765334754 158.528763541 285 176 c 1
 357 215 l 1
 394.344889648 175.211520668 371.639475142 113.431499663 369 59 c 1
 372.940235959 59.608016008 277.379693736 -1.39020030132 180 0 c 1
 173.88671875 0.1318359375 77.873046875 -0.146484375 72 0 c 1
 18.126953125 1.345703125 20.7238673711 76.0503146387 18 77 c 0
 14.1949240039 78.3266523218 -18.798039432 379.493957604 15 716 c 1
EndSplineSet
Validated: 524321
EndChar

StartChar: l
Encoding: 108 108 15
Width: 132
Flags: HW
LayerCount: 2
Fore
SplineSet
7 645 m 0
 9.7392578125 842.404296875 75.3154296875 762.770507812 96 784 c 1
 98 0 l 1
 9 0 l 1
 9 0 6.59595867812 615.882808953 7 645 c 0
EndSplineSet
Validated: 524321
EndChar

StartChar: S
Encoding: 83 83 16
Width: 540
Flags: HW
LayerCount: 2
Fore
SplineSet
206 797 m 1
 98 889 l 1
 164 893 l 1
 208 847 l 1
 252 891 l 1
 326 893 l 1
 206 797 l 1
396 667 m 1
 348.06751279 709.762118684 351.91071261 752.735078254 224 786 c 1
 161.397917973 781.106766235 118.616210938 780.522460938 88 737 c 1
 39.748046875 703.943359375 32.259765625 664.489257812 18 607 c 1
 23.5126953125 536.650390625 78.8711893225 512.926144923 120 484 c 1
 238 444 l 1
 330.50591822 379.806990104 329.05859375 317.083984375 356 245 c 1
 353.203125 231.408203125 327.179787705 140.573987333 241 135 c 0
 131.706507008 127.931050752 119.652524958 261.618560405 124 262 c 1
 28 258 l 1
 24.3821078358 202.355539434 27.3312257237 146.28126172 64 88 c 1
 64 88 120.70608669 9.49943329365 248 18 c 0
 371.99953394 26.280571179 426.000017762 104.827753908 426 104 c 1
 461.224200632 163.999999995 466.603286365 224.000000006 460 284 c 1
 438.860459591 370.683630416 396.963096754 453.229190295 296 524 c 1
 296 524 124 563 132 615 c 0
 140 667 182 687 182 687 c 1
 182 687 239.868878424 704.756592467 274 668 c 0
 300 640 330 614 330 614 c 1
 396 667 l 1
EndSplineSet
Validated: 524329
EndChar

StartChar: scaron
Encoding: 185 353 17
Width: 321
Flags: HW
LayerCount: 2
Fore
SplineSet
56 568 m 1
 112 563 l 25
 150 526 l 1
 194 566 l 1
 241 567 l 1
 149 487 l 1
 56 568 l 1
14 390 m 1
 10.4039402248 468.423583085 38.8295323712 449.059037848 68 468 c 1
 170 474 l 1
 193.999937442 468.414934736 205.999023438 462.625976562 230 440 c 1
 254.87109375 424.322265625 261.349868201 388.109661865 270 354 c 1
 215.85650679 312.223272913 220.466272637 375.783966894 200 382 c 1
 184 402 l 1
 152.666666674 418.41061771 121.333333325 414.054328523 90 396 c 1
 75.8784593386 365.999999993 89.9296328836 336.000000012 94 306 c 1
 135.535848521 276.225810728 162.176536261 290.834407772 194 290 c 1
 253.074219128 263.263041823 269.427734375 227.258789062 280 190 c 1
 277.954101562 157.333007812 277.12741262 124.66666667 276 92 c 1
 280.859175672 67.5384888399 254.192645912 39.7878423729 208 10 c 1
 138.666666664 1.25949086636 77.3333333391 -18.5928241997 24 42 c 1
 8.9170172224 86.6666666717 9.36485714669 131.333333328 16 176 c 1
 59.6338460901 205.578960182 91.1884765625 176.405273438 78 174 c 1
 77.7353515625 148.666992188 79.6123046875 115.333007812 88 90 c 1
 122.697265625 77.23046875 165.28212878 81.8263334886 184 104 c 1
 186.280474759 131.153756041 189.843335955 159.869645322 188 182 c 1
 179.369348507 200.666666667 181.964106522 219.333333333 148 238 c 1
 105.953485005 241.355209714 61.8529334782 238.165809716 30 274 c 1
 14 390 l 1
EndSplineSet
Validated: 524321
EndChar

StartChar: dcroat
Encoding: 240 273 18
Width: 496
Flags: HW
LayerCount: 2
Fore
SplineSet
346 266 m 1
 283.99999997 275.671147248 222.00000003 273.60226093 160 262 c 1
 137.695677005 243.334747294 118.5625 222.666992188 104 204 c 1
 103.146484375 170.666992188 104.428710938 137.333007812 106 104 c 1
 126.185881997 90.7807395239 135.758971385 66.2845227581 170 68 c 1
 227.999999998 51.8009823222 286.000000003 63.0335629141 344 72 c 1
 346 266 l 1
353 781 m 1
 449 777 l 1
 450 574 l 1
 532 572 l 1
 527 509 l 1
 453 509 l 1
 442 0 l 1
 327.823800656 -4.62870049991 219.726917571 -33.5755303469 96 0 c 1
 88.8090279617 -2.6735765391 -4.20930157032 92.4915462285 16 92 c 0
 22.161331785 91.8501393336 1.9093666055 262.841799455 26 278 c 0
 26.5915996384 278.372243677 98.2168080902 339.358310168 114 342 c 1
 189.333333336 368.760839295 264.666666664 365.248836503 340 354 c 1
 347 503 l 1
 261 503 l 1
 261 569 l 1
 355 573 l 1
 353 781 l 1
EndSplineSet
Validated: 524321
EndChar

StartChar: Dcroat
Encoding: 208 272 19
Width: 566
Flags: HW
LayerCount: 2
Fore
SplineSet
93 720 m 1
 97 483 l 1
 163 483 l 1
 167 389 l 1
 103 391 l 1
 109 103 l 1
 179 82.326171875 249 81.01953125 319 103 c 5
 345.159179688 126.059570312 368.556640625 150.947265625 363 195 c 1
 370.21484375 335 375.002929688 475 355 615 c 1
 352.331054688 652.5234375 349.998046875 674.41015625 321 696 c 1
 258.0859375 704.127929688 186.993164062 737.7734375 93 720 c 1
1 785 m 1
 7.10449489074 809.778171158 330.784183727 788.071443134 355 779 c 0
 395.672456279 763.763764719 436.237304688 675.630859375 431 673 c 1
 463.3359375 498.413085938 458.390625 328.318359375 447 159 c 1
 454.577148438 110.311523438 424.793945312 66.4423828125 383 23 c 1
 259.666992188 -5.158203125 136.333007812 -6.7978515625 13 21 c 1
 9 395 l 1
 -63 397 l 1
 -61 479 l 1
 7 477 l 1
 1 785 l 1
EndSplineSet
Validated: 524321
EndChar

StartChar: zcaron
Encoding: 190 382 20
Width: 1000
Flags: H
LayerCount: 2
Fore
SplineSet
96 516 m 1
 146 520 l 1
 186 480 l 1
 240 522 l 1
 276 506 l 1
 182 446 l 1
 96 516 l 1
134 66 m 1
 124.798828125 66.083984375 263.263782237 60.5885110647 328 60 c 1
 336 0 l 1
 336 0 -4 4 0 0 c 0
 4 -4 234 366 234 366 c 1
 0 354 l 5
 0 424 l 1
 340 422 l 1
 134 66 l 1
EndSplineSet
Validated: 524325
EndChar

StartChar: Edieresis
Encoding: 203 203 21
Width: 1000
Flags: H
LayerCount: 2
Fore
SplineSet
0 792 m 1
 464 788 l 1
 462 694 l 5
 56 710 l 1
 78 444 l 1
 498 420 l 25
 492 324 l 25
 208 314 l 1049
EndSplineSet
Validated: 3
EndChar
